<?xml version="1.0" standalone="no"?>
<!DOCTYPE svg PUBLIC "-//W3C//DTD SVG 20010904//EN"
 "http://www.w3.org/TR/2001/REC-SVG-20010904/DTD/svg10.dtd">
<svg version="1.0" xmlns="http://www.w3.org/2000/svg"
 width="540.000000pt" height="540.000000pt" viewBox="0 0 540.000000 540.000000"
 preserveAspectRatio="xMidYMid meet">
<metadata>
Created by potrace 1.11, written by Peter Selinger 2001-2013
</metadata>
<g transform="translate(0.000000,540.000000) scale(0.100000,-0.100000)"
fill="#000000" stroke="none">
<path d="M690 4745 c-162 -7 -309 -17 -325 -22 -49 -16 -127 -59 -201 -109
-85 -57 -80 -52 -68 -64 6 -6 123 -6 334 2 325 11 680 3 1040 -23 195 -14 712
-67 870 -89 256 -36 706 -119 1032 -191 284 -63 326 -75 318 -89 -6 -11 3 -32
32 -74 22 -32 38 -59 36 -60 -2 -1 -31 -17 -66 -35 -125 -64 -290 -92 -530
-92 -97 1 -196 -5 -245 -13 -120 -21 -247 -29 -308 -21 -43 6 -60 14 -85 42
-54 59 -150 70 -235 28 -49 -26 -50 -26 -74 -7 l-25 20 28 5 c42 8 78 42 128
117 24 37 44 70 44 74 0 3 -24 6 -52 6 -29 0 -88 8 -131 17 -87 18 -174 11
-238 -21 -18 -9 -33 -15 -34 -14 0 2 -10 17 -20 33 -14 21 -19 44 -16 76 3 49
-15 96 -52 137 -28 30 -37 28 -37 -8 0 -17 -7 -47 -15 -66 -18 -42 -7 -44
-170 25 -193 83 -293 101 -440 82 -227 -31 -393 -166 -455 -371 -15 -49 -19
-55 -41 -51 -36 5 -80 40 -95 77 -18 42 -29 43 -43 3 -30 -87 0 -168 76 -204
73 -35 70 -54 -19 -148 -42 -45 -94 -98 -114 -117 l-36 -35 133 -10 134 -10
-36 -18 c-34 -17 -59 -51 -59 -81 0 -7 -18 -38 -40 -69 -22 -31 -43 -69 -46
-86 -4 -17 -14 -33 -25 -36 -10 -4 -32 -23 -49 -43 -44 -53 -42 -110 4 -156
21 -22 36 -48 40 -73 20 -110 86 -219 174 -286 90 -69 207 -104 318 -95 30 3
54 3 54 0 0 -2 -8 -16 -18 -30 -58 -85 -98 -242 -90 -354 3 -47 10 -64 33 -88
16 -17 44 -33 64 -36 31 -6 193 14 260 32 22 7 23 6 11 -17 -7 -13 -19 -30
-27 -37 -8 -9 -13 -33 -13 -61 1 -25 -11 -93 -25 -151 -25 -97 -26 -115 -20
-240 9 -210 9 -215 -14 -262 -11 -23 -59 -83 -107 -133 -80 -84 -204 -238
-204 -253 0 -4 -13 -13 -29 -20 -34 -15 -129 -126 -138 -161 -10 -40 8 -56 65
-56 l50 0 -1 -40 c-2 -34 2 -41 27 -53 23 -12 39 -12 90 -2 139 27 276 133
276 214 0 34 49 86 124 131 68 40 239 97 342 115 64 10 80 9 155 -10 46 -12
100 -31 120 -41 20 -10 45 -19 55 -19 9 0 42 -17 72 -37 46 -32 63 -38 121
-41 54 -3 79 0 116 17 55 24 114 27 153 7 77 -39 184 -27 249 28 32 28 51 35
121 45 45 7 149 35 230 63 155 53 178 55 247 23 56 -27 62 -78 19 -153 -17
-29 -40 -50 -73 -67 -83 -42 -126 -118 -97 -173 20 -39 89 -67 143 -58 50 8
50 8 106 0 41 -6 51 -4 72 16 15 14 25 35 25 51 0 23 13 39 68 82 140 113 189
187 198 307 7 77 -17 159 -67 227 -16 24 -28 47 -24 52 3 5 31 20 63 33 55 22
66 23 302 21 314 -4 365 5 567 94 l102 45 48 -22 c101 -46 248 -43 351 8 58
29 86 62 41 47 -13 -4 -40 -9 -59 -11 l-35 -5 40 21 c52 27 92 66 117 114 20
40 49 155 41 168 -2 4 -27 -9 -56 -30 -66 -49 -78 -55 -156 -81 -75 -24 -79
-25 -63 -9 7 7 12 16 12 20 0 15 -30 8 -111 -23 -66 -25 -93 -43 -145 -93 -88
-87 -163 -120 -324 -142 -112 -15 -139 -15 -265 -3 -196 20 -417 18 -474 -4
-24 -10 -45 -16 -47 -14 -2 1 7 25 20 52 36 78 62 161 87 275 12 58 25 108 29
112 8 10 188 54 277 67 104 16 381 14 498 -4 55 -8 143 -29 196 -47 107 -35
142 -33 117 5 -27 40 -263 252 -303 271 -35 17 -58 18 -244 13 -215 -6 -289
-17 -424 -61 -43 -14 -80 -26 -83 -26 -3 0 -4 24 -2 52 l3 53 55 12 c101 24
294 34 424 22 67 -6 137 -10 156 -10 64 0 153 16 157 28 9 26 -211 84 -392
104 -103 11 -259 8 -370 -8 l-45 -6 0 76 c0 115 -17 220 -57 346 -48 154 -73
212 -133 317 -59 103 -80 159 -87 234 -5 52 -3 59 37 117 50 75 90 111 235
208 131 88 231 132 339 151 44 8 95 23 113 34 l33 19 332 -126 c218 -82 340
-133 353 -148 24 -27 98 -65 126 -65 46 0 114 56 124 102 4 18 1 37 -8 51 -18
28 -95 67 -133 67 -26 0 -113 31 -354 127 -47 19 -149 59 -227 90 l-141 56
-11 43 c-13 49 -47 80 -100 90 -20 4 -53 21 -73 37 -32 26 -47 30 -98 31 -35
0 -60 5 -60 11 0 24 -59 102 -81 108 -19 5 -33 -4 -73 -45 l-49 -51 -176 41
c-97 23 -300 71 -451 107 -151 36 -360 79 -465 96 -590 94 -707 110 -1035 140
-414 37 -611 42 -1020 24z m907 -40 c456 -41 480 -44 813 -96 328 -51 688
-122 1032 -204 150 -36 295 -70 321 -76 26 -6 47 -15 45 -19 -2 -4 -25 -31
-51 -59 l-48 -51 -312 70 c-172 39 -440 93 -597 120 -157 27 -323 56 -370 64
-47 9 -195 27 -330 41 -135 14 -301 32 -370 40 -128 16 -969 57 -1005 50 -11
-2 -146 -7 -300 -10 l-279 -6 50 34 c28 19 79 50 114 67 78 39 148 46 595 59
165 4 301 9 302 9 1 1 176 -14 390 -33z m2363 -292 c0 -4 -33 -41 -73 -82 -40
-42 -94 -100 -120 -130 -48 -54 -70 -63 -46 -19 15 27 219 238 231 238 4 0 8
-3 8 -7z m51 -64 c23 -46 16 -59 -31 -59 -36 0 -62 -22 -105 -86 -32 -48 -36
-59 -27 -80 10 -20 7 -26 -20 -48 l-31 -24 -29 39 c-15 21 -28 42 -28 45 0 16
226 254 241 254 5 0 18 -19 30 -41z m-2153 -110 c-2 -32 -6 -61 -9 -63 -2 -3
-27 3 -54 12 l-51 17 29 24 c15 13 37 41 48 64 19 35 22 38 31 23 6 -10 8 -45
6 -77z m2067 -30 c-25 -34 -45 -66 -45 -72 0 -6 -3 -7 -6 -4 -7 7 35 78 69
115 35 38 29 24 -18 -39z m-154 -151 c20 -37 -1 -16 -31 30 -27 40 -27 42 -5
17 14 -16 30 -38 36 -47z m552 35 c-38 -7 -70 -73 -43 -86 6 -3 5 -4 -2 -3
-40 8 3 97 45 95 22 -2 22 -2 0 -6z m47 -7 c0 -2 -7 -7 -16 -10 -8 -3 -12 -2
-9 4 6 10 25 14 25 6z m71 -34 c-7 -2 -18 1 -23 6 -8 8 -4 9 13 5 13 -4 18 -8
10 -11z m-3768 -89 c15 -3 27 -6 27 -7 0 -1 -8 -18 -18 -37 -16 -31 -21 -35
-41 -28 -12 5 -20 13 -16 19 4 6 -1 7 -11 3 -14 -5 -16 -3 -11 11 4 10 3 15
-3 11 -13 -8 -30 29 -30 68 l0 35 38 -35 c20 -19 49 -37 65 -40z m3717 62 c-7
-9 -15 -13 -19 -10 -3 3 1 10 9 15 21 14 24 12 10 -5z m220 -35 c8 -5 11 -10
5 -10 -5 0 -17 5 -25 10 -8 5 -10 10 -5 10 6 0 17 -5 25 -10z m-250 -10 c8 -5
11 -10 5 -10 -5 0 -17 5 -25 10 -8 5 -10 10 -5 10 6 0 17 -5 25 -10z m210 -3
c0 -2 -10 -12 -22 -23 l-23 -19 19 23 c18 21 26 27 26 19z m104 -16 c3 -4 -4
-7 -14 -7 -11 0 -22 6 -24 12 -5 12 31 8 38 -5z m-74 -71 c8 -5 11 -10 5 -10
-5 0 -17 5 -25 10 -8 5 -10 10 -5 10 6 0 17 -5 25 -10z m-2866 -26 c17 -43
-77 -142 -172 -179 -88 -35 -210 -45 -247 -21 -14 9 -25 20 -25 24 0 4 38 20
85 35 46 16 87 32 90 37 6 9 97 53 99 48 18 -48 70 -62 101 -28 18 20 18 23 4
49 -15 26 -15 28 5 38 32 16 53 15 60 -3z m2916 6 c8 -5 11 -10 5 -10 -5 0
-17 5 -25 10 -8 5 -10 10 -5 10 6 0 17 -5 25 -10z m296 -18 c8 -5 4 -13 -13
-26 -25 -18 -25 -18 -14 1 6 11 7 23 4 27 -9 8 9 7 23 -2z m-216 -12 c18 -12
2 -12 -25 0 -13 6 -15 9 -5 9 8 0 22 -4 30 -9z m300 -20 c8 -5 11 -10 5 -10
-5 0 -17 5 -25 10 -8 5 -10 10 -5 10 6 0 17 -5 25 -10z m33 -30 c3 -11 1 -18
-4 -14 -5 3 -9 12 -9 20 0 20 7 17 13 -6z m102 8 c14 -6 25 -18 25 -26 0 -24
-41 -62 -66 -62 -19 0 -94 26 -94 33 0 1 15 2 33 2 27 0 32 4 34 25 0 14 1 28
2 33 1 11 37 9 66 -5z m51 -84 c-7 -27 -59 -64 -91 -64 -37 0 -105 34 -105 53
0 16 3 16 40 -3 21 -11 47 -20 57 -20 28 0 85 39 91 63 3 12 7 16 10 9 2 -7 1
-24 -2 -38z m-4346 -24 c19 0 29 -6 33 -20 6 -24 42 -27 51 -5 6 16 36 21 36
6 0 -5 -14 -21 -30 -35 -60 -50 -165 -46 -183 7 -14 43 -3 61 34 53 18 -3 44
-6 59 -6z m1624 -303 c41 -82 41 -145 1 -187 -16 -18 -55 -45 -87 -61 -73 -37
-141 -115 -193 -221 -49 -102 -83 -128 -159 -127 -70 1 -96 10 -119 41 l-19
26 29 39 c16 21 42 68 58 106 28 70 73 139 109 169 12 10 42 25 68 33 54 19
141 92 164 139 18 35 94 107 109 103 6 -2 23 -29 39 -60z m1155 -254 c70 -138
137 -359 150 -494 16 -167 15 -178 -11 -183 -13 -2 -52 -11 -87 -19 l-64 -14
-37 33 c-21 19 -57 43 -82 54 -77 34 -115 35 -229 5 -86 -22 -117 -26 -178
-21 -94 8 -154 38 -159 80 -7 57 9 97 61 159 103 121 103 120 52 226 -52 109
-44 165 30 211 42 26 96 25 171 -1 47 -16 76 -20 141 -17 74 4 87 8 135 40 29
20 56 33 59 29 4 -3 26 -43 48 -88z m-1239 -378 c0 -28 4 -29 66 -14 25 6 47
9 50 6 3 -3 -4 -24 -16 -47 l-21 -42 21 -23 22 -23 -31 -7 c-27 -6 -30 -10
-37 -61 -3 -30 -9 -54 -13 -54 -3 0 -27 7 -53 17 l-47 16 -35 -26 -35 -27 -3
23 c-3 20 -8 22 -58 20 -36 -2 -62 2 -74 12 -18 13 -17 15 12 53 22 27 28 42
21 53 -13 21 -11 26 16 33 22 6 25 12 25 51 0 50 4 52 65 30 51 -19 47 -19 81
10 36 31 44 31 44 0z m-869 -189 c26 -8 60 -21 75 -29 30 -15 71 -55 63 -60
-2 -2 -64 -18 -138 -35 -145 -35 -149 -35 -177 19 -17 34 -7 68 32 98 31 25
79 27 145 7z m-231 -181 c0 -8 -2 -15 -4 -15 -2 0 -12 -3 -21 -7 -15 -5 -16
-3 -6 15 13 25 31 29 31 7z m2506 -120 c-6 -16 -40 -9 -56 11 -9 10 -5 15 22
22 34 9 46 -2 34 -33z m-2066 -19 c18 -34 80 -57 169 -63 121 -8 191 -57 191
-134 l0 -39 -42 0 c-48 0 -396 26 -473 35 -27 4 -96 15 -153 26 -57 10 -105
19 -107 19 -7 0 7 34 22 51 7 8 59 31 116 49 56 18 129 43 162 56 77 30 98 30
115 0z m-416 -315 c67 -42 392 -104 606 -117 l124 -7 -43 -39 c-31 -26 -66
-45 -115 -60 -95 -28 -136 -50 -195 -102 -41 -36 -63 -47 -125 -62 -72 -17
-79 -17 -131 0 -42 13 -64 28 -100 69 -56 64 -84 119 -86 172 -2 41 20 165 29
165 2 0 19 -9 36 -19z m3729 -156 c-17 -7 -42 -11 -55 -7 -19 6 -17 8 17 13
65 10 72 9 38 -6z m120 -12 c-7 -2 -13 -12 -13 -21 0 -14 -2 -14 -9 -3 -6 10
-19 12 -47 6 -22 -4 -36 -4 -33 -1 3 4 26 10 50 15 51 10 69 12 52 4z m-2663
-44 c92 -24 139 -56 201 -134 l47 -59 -70 -23 c-68 -22 -118 -22 -146 0 -7 5
-16 7 -20 3 -4 -4 4 -17 18 -28 19 -16 35 -19 80 -15 30 2 73 11 95 20 52 20
79 6 83 -45 3 -29 -2 -40 -28 -61 -17 -15 -50 -32 -73 -38 -42 -11 -135 -8
-171 7 -14 5 -17 3 -14 -7 2 -8 27 -20 54 -27 82 -21 181 2 229 54 l25 27 0
-49 c0 -27 -10 -81 -21 -121 -21 -69 -22 -71 -46 -62 -36 14 -109 11 -149 -6
-20 -8 -48 -12 -64 -8 -37 7 -39 -9 -5 -25 20 -10 33 -9 62 3 40 17 119 20
157 5 53 -20 19 -96 -58 -131 -55 -25 -116 -24 -202 4 -67 21 -71 24 -62 46
12 32 3 55 -33 86 -32 27 -74 32 -139 16 -20 -4 -47 -4 -60 1 -32 12 -49 -6
-21 -22 15 -8 48 -9 102 -4 75 6 81 5 104 -16 27 -26 31 -47 12 -71 -58 -75
-214 -85 -283 -18 -31 30 -54 85 -54 128 0 14 -4 20 -11 15 -8 -4 -9 -25 -5
-60 3 -30 4 -54 1 -54 -22 0 -89 47 -122 84 -51 58 -68 116 -68 231 0 106 18
162 74 230 49 60 93 89 172 114 127 41 275 45 409 10z m2465 19 c-16 -6 -60
-23 -97 -39 -75 -31 -93 -31 -25 1 58 27 119 49 137 49 8 -1 2 -5 -15 -11z
m150 -17 c-104 -43 -168 -64 -210 -72 -27 -4 -61 -11 -75 -14 -70 -15 80 40
175 65 109 29 149 36 110 21z"/>
<path d="M2297 2652 c-35 -36 -35 -62 -2 -62 52 0 117 53 100 80 -13 21 -71
10 -98 -18z m73 8 c0 -5 -6 -10 -14 -10 -7 0 -26 -10 -41 -22 -18 -14 -26 -17
-23 -7 2 8 20 22 39 31 40 21 39 21 39 8z"/>
<path d="M2130 1549 c0 -43 60 -79 133 -79 80 0 97 -51 39 -113 -36 -38 -90
-51 -156 -37 -76 16 -117 53 -123 112 -7 59 -23 53 -23 -8 0 -36 5 -50 28 -71
62 -58 171 -80 245 -49 50 20 87 70 87 115 0 53 -26 74 -93 76 -59 2 -91 16
-107 45 -11 21 -30 27 -30 9z"/>
</g>
</svg>
